<svg width="192" height="77" viewBox="0 0 192 77" fill="none" xmlns="http://www.w3.org/2000/svg">
<g clip-path="url(#clip0_842_537)">
<path d="M21.8601 11.0488C20.5602 10.0215 18.6736 10.2425 17.6463 11.5424C16.619 12.8423 16.84 14.7289 18.1399 15.7562L21.8601 11.0488ZM60.714 45.5784L58.8539 47.9321C59.5099 48.4505 60.3526 48.6717 61.1786 48.5422C62.0047 48.4127 62.7392 47.9443 63.2051 47.25L60.714 45.5784ZM73.6028 26.3708L75.4468 24.0045C74.7901 23.4927 73.9502 23.2769 73.1281 23.4086C72.306 23.5404 71.5756 24.0078 71.1117 24.6992L73.6028 26.3708ZM107.276 52.6105L105.432 54.9769C106.088 55.4879 106.926 55.7039 107.747 55.5733C108.568 55.4426 109.298 54.9772 109.763 54.2879L107.276 52.6105ZM125.82 25.1128L127.751 22.8176C127.1 22.2695 126.247 22.0238 125.404 22.1417C124.561 22.2595 123.808 22.7298 123.332 23.4354L125.82 25.1128ZM171.358 66.2154C173.009 66.0735 174.232 64.6203 174.09 62.9695L171.778 36.0687C171.636 34.4179 170.183 33.1947 168.532 33.3366C166.881 33.4785 165.658 34.9318 165.8 36.5825L167.855 60.4943L143.944 62.5497C142.293 62.6916 141.07 64.1448 141.212 65.7956C141.353 67.4463 142.807 68.6695 144.458 68.5276L171.358 66.2154ZM18.1399 15.7562L58.8539 47.9321L62.5741 43.2247L21.8601 11.0488L18.1399 15.7562ZM63.2051 47.25L76.094 28.0424L71.1117 24.6992L58.2229 43.9068L63.2051 47.25ZM71.7589 28.7372L105.432 54.9769L109.12 50.2442L75.4468 24.0045L71.7589 28.7372ZM109.763 54.2879L128.307 26.7901L123.332 23.4354L104.789 50.9332L109.763 54.2879ZM123.888 27.408L169.17 65.5216L173.033 60.9312L127.751 22.8176L123.888 27.408Z" fill="#1472EC"/>
</g>
<defs>
<clipPath id="clip0_842_537">
<rect width="192" height="76" fill="white" transform="translate(0 0.5)"/>
</clipPath>
</defs>
</svg>
