<svg width="76" height="76" viewBox="0 0 76 76" fill="none" xmlns="http://www.w3.org/2000/svg">
<path d="M75.5215 31.9886C76.7104 39.4097 75.6721 47.0166 72.5377 53.8475C69.4034 60.6785 64.3138 66.4265 57.9127 70.3649C51.5115 74.3032 44.0862 76.255 36.5758 75.9733C29.0654 75.6916 21.8072 73.1892 15.719 68.7824C9.63081 64.3756 4.9861 58.2625 2.37223 51.216C-0.241642 44.1695 -0.707284 36.5061 1.03419 29.195C2.77566 21.8838 6.64603 15.2533 12.1559 10.1418C17.6657 5.03029 24.5675 1.66745 31.9886 0.4785L34.6937 17.3632C30.6121 18.0171 26.8161 19.8667 23.7857 22.678C20.7553 25.4893 18.6266 29.1361 17.6688 33.1572C16.711 37.1784 16.9671 41.3932 18.4047 45.2688C19.8424 49.1444 22.3969 52.5066 25.7454 54.9303C29.094 57.354 33.086 58.7304 37.2167 58.8853C41.3474 59.0402 45.4313 57.9668 48.952 55.8007C52.4726 53.6346 55.2719 50.4732 56.9958 46.7161C58.7196 42.9591 59.2907 38.7753 58.6368 34.6937L75.5215 31.9886Z" fill="#BEF022"/>
<path d="M31.958 0.483416C36.8847 -0.310033 41.9195 -0.125316 46.7749 1.02702C51.6302 2.17935 56.2111 4.27674 60.2559 7.19942C64.3007 10.1221 67.7302 13.8129 70.3486 18.0609C72.9671 22.309 74.7231 27.0312 75.5166 31.958L58.6341 34.6769C58.1977 31.9672 57.2319 29.37 55.7917 27.0335C54.3516 24.6971 52.4654 22.6672 50.2407 21.0597C48.0161 19.4522 45.4966 18.2986 42.8262 17.6649C40.1557 17.0311 37.3866 16.9295 34.6769 17.3659L31.958 0.483416Z" fill="#FED346"/>
</svg>
