<svg width="86" height="87" viewBox="0 0 86 87" fill="none" xmlns="http://www.w3.org/2000/svg">
<path fill-rule="evenodd" clip-rule="evenodd" d="M3.69399 67.0269C-0.601774 71.3227 -0.601774 78.2875 3.69399 82.5833C7.98976 86.879 14.9546 86.879 19.2503 82.5833L42.8895 58.9441L66.75 82.8045C71.0457 87.1002 78.0105 87.1002 82.3063 82.8045C86.6021 78.5087 86.6021 71.5439 82.3063 67.2481L58.4459 43.3877L82.0818 19.7518C86.3776 15.456 86.3776 8.49122 82.0818 4.19546C77.786 -0.100311 70.8212 -0.100307 66.5254 4.19546L42.8895 27.8314L19.4749 4.41666C15.1791 0.120897 8.21427 0.120897 3.91851 4.41666C-0.377261 8.71243 -0.377261 15.6772 3.91851 19.973L27.3332 43.3877L3.69399 67.0269Z" fill="#1472EC"/>
</svg>
