<svg width="28" height="29" viewBox="0 0 28 29" fill="none" xmlns="http://www.w3.org/2000/svg">
<g id="Frame 560">
<g clip-path="url(#clip0_370_574)">
<rect y="0.18457" width="28" height="28" rx="14" fill="white" fill-opacity="0.4"/>
<g id="keyboard_arrow_down">
<mask id="mask0_370_574" style="mask-type:alpha" maskUnits="userSpaceOnUse" x="0" y="1" width="28" height="29">
<rect id="Bounding box" y="1.18457" width="28" height="28" fill="#D9D9D9"/>
</mask>
<g mask="url(#mask0_370_574)">
<path id="keyboard_arrow_down_2" d="M14.0001 18.6549C13.8446 18.6549 13.6988 18.6305 13.5626 18.5819C13.4265 18.5333 13.3001 18.4507 13.1835 18.334L7.81681 12.9674C7.60292 12.7535 7.49597 12.4812 7.49597 12.1507C7.49597 11.8201 7.60292 11.5479 7.81681 11.334C8.03069 11.1201 8.30292 11.0132 8.63347 11.0132C8.96403 11.0132 9.23625 11.1201 9.45014 11.334L14.0001 15.884L18.5501 11.334C18.764 11.1201 19.0363 11.0132 19.3668 11.0132C19.6974 11.0132 19.9696 11.1201 20.1835 11.334C20.3974 11.5479 20.5043 11.8201 20.5043 12.1507C20.5043 12.4812 20.3974 12.7535 20.1835 12.9674L14.8168 18.334C14.7001 18.4507 14.5738 18.5333 14.4376 18.5819C14.3015 18.6305 14.1557 18.6549 14.0001 18.6549Z" fill="#363636"/>
</g>
</g>
</g>
</g>
<defs>
<clipPath id="clip0_370_574">
<rect y="0.18457" width="28" height="28" rx="14" fill="white"/>
</clipPath>
</defs>
</svg>
