<svg width="68" height="68" viewBox="0 0 68 68" fill="none" xmlns="http://www.w3.org/2000/svg">
<path fill-rule="evenodd" clip-rule="evenodd" d="M51.6307 44.8521C53.5746 44.8521 55.3707 45.8892 56.3423 47.5728C58.4354 51.1994 55.8181 55.732 51.6307 55.732H15.528C11.3407 55.732 8.72334 51.1994 10.8164 47.5728C11.7881 45.8892 13.5842 44.8521 15.528 44.8521H51.6307Z" fill="#FED346"/>
<path fill-rule="evenodd" clip-rule="evenodd" d="M22.5923 43.4921C18.4049 43.4921 15.7876 38.9595 17.8807 35.3328C18.8523 33.6492 20.6485 32.6121 22.5923 32.6121H44.5666C46.5105 32.6121 48.3066 33.6492 49.2782 35.3328C51.3713 38.9595 48.754 43.4921 44.5666 43.4921H22.5923Z" fill="#BEF022"/>
<path fill-rule="evenodd" clip-rule="evenodd" d="M29.6567 31.2517C25.4694 31.2517 22.852 26.7191 24.9451 23.0924C25.9168 21.4089 27.7129 20.3717 29.6567 20.3717H37.5021C39.4459 20.3717 41.242 21.4089 42.2137 23.0924C44.3068 26.7191 41.6894 31.2517 37.5021 31.2517H29.6567Z" fill="#F17FF5"/>
<path fill-rule="evenodd" clip-rule="evenodd" d="M36.7198 13.5735C38.115 15.9908 36.3704 19.012 33.5793 19.012C30.7883 19.012 29.0437 15.9908 30.4388 13.5735C31.8344 11.1555 35.3243 11.1555 36.7198 13.5735Z" fill="#8C59CE"/>
</svg>
