<svg width="28" height="29" viewBox="0 0 28 29" fill="none" xmlns="http://www.w3.org/2000/svg">
<g clip-path="url(#clip0_370_544)">
<rect y="0.5" width="28" height="28" rx="14" fill="#9C70D5"/>
<mask id="mask0_370_544" style="mask-type:alpha" maskUnits="userSpaceOnUse" x="0" y="0" width="28" height="29">
<rect y="0.5" width="28" height="28" fill="#D9D9D9"/>
</mask>
<g mask="url(#mask0_370_544)">
<path d="M14 13.1L9.45002 17.65C9.23613 17.8639 8.96391 17.9709 8.63335 17.9709C8.30279 17.9709 8.03057 17.8639 7.81668 17.65C7.60279 17.4362 7.49585 17.1639 7.49585 16.8334C7.49585 16.5028 7.60279 16.2306 7.81668 16.0167L13.1834 10.65C13.4167 10.4167 13.6889 10.3 14 10.3C14.3111 10.3 14.5834 10.4167 14.8167 10.65L20.1834 16.0167C20.3972 16.2306 20.5042 16.5028 20.5042 16.8334C20.5042 17.1639 20.3972 17.4362 20.1834 17.65C19.9695 17.8639 19.6972 17.9709 19.3667 17.9709C19.0361 17.9709 18.7639 17.8639 18.55 17.65L14 13.1Z" fill="white"/>
</g>
</g>
<defs>
<clipPath id="clip0_370_544">
<rect y="0.5" width="28" height="28" rx="14" fill="white"/>
</clipPath>
</defs>
</svg>
