<svg width="192" height="76" viewBox="0 0 192 76" fill="none" xmlns="http://www.w3.org/2000/svg">
<g clip-path="url(#clip0_842_538)">
<path d="M21.8601 65.0793C20.5602 66.1066 18.6736 65.8857 17.6463 64.5857C16.619 63.2858 16.84 61.3992 18.1399 60.3719L21.8601 65.0793ZM60.7137 30.55L58.8536 28.1963C59.5096 27.6779 60.3522 27.4567 61.1783 27.5862C62.0044 27.7157 62.7389 28.1841 63.2048 28.8784L60.7137 30.55ZM73.6024 49.7574L75.4464 52.1238C74.7897 52.6356 73.9498 52.8514 73.1277 52.7196C72.3056 52.5879 71.5752 52.1204 71.1113 51.429L73.6024 49.7574ZM107.275 23.5179L105.431 21.1516C106.087 20.6405 106.925 20.4246 107.746 20.5552C108.568 20.6858 109.298 21.1513 109.762 21.8406L107.275 23.5179ZM125.819 51.0155L127.751 53.3106C127.099 53.8587 126.246 54.1044 125.403 53.9866C124.56 53.8687 123.807 53.3984 123.331 52.6928L125.819 51.0155ZM171.357 9.91316C173.008 10.055 174.231 11.5083 174.089 13.1591L171.777 40.0599C171.635 41.7106 170.182 42.9338 168.531 42.7919C166.88 42.65 165.657 41.1968 165.799 39.546L167.854 15.6342L143.942 13.5789C142.292 13.437 141.069 11.9837 141.21 10.333C141.352 8.68221 142.806 7.45902 144.456 7.60091L171.357 9.91316ZM18.1399 60.3719L58.8536 28.1963L62.5738 32.9037L21.8601 65.0793L18.1399 60.3719ZM63.2048 28.8784L76.0935 48.0858L71.1113 51.429L58.2226 32.2216L63.2048 28.8784ZM71.7584 47.3911L105.431 21.1516L109.119 25.8843L75.4464 52.1238L71.7584 47.3911ZM109.762 21.8406L128.306 49.3381L123.331 52.6928L104.788 25.1953L109.762 21.8406ZM123.887 48.7203L169.168 10.6069L173.032 15.1973L127.751 53.3106L123.887 48.7203Z" fill="#EB626B"/>
</g>
<defs>
<clipPath id="clip0_842_538">
<rect width="192" height="76" fill="white"/>
</clipPath>
</defs>
</svg>
