<svg width="28" height="29" viewBox="0 0 28 29" fill="none" xmlns="http://www.w3.org/2000/svg">
<g id="Frame 560">
<g clip-path="url(#clip0_370_561)">
<rect y="0.527832" width="28" height="28" rx="14" fill="white" fill-opacity="0.2"/>
<g id="keyboard_arrow_down">
<mask id="mask0_370_561" style="mask-type:alpha" maskUnits="userSpaceOnUse" x="0" y="1" width="28" height="29">
<rect id="Bounding box" y="1.52783" width="28" height="28" fill="#D9D9D9"/>
</mask>
<g mask="url(#mask0_370_561)">
<path id="keyboard_arrow_down_2" d="M14.0001 18.9979C13.8446 18.9979 13.6988 18.9736 13.5626 18.925C13.4265 18.8763 13.3001 18.7937 13.1835 18.677L7.81681 13.3104C7.60292 13.0965 7.49597 12.8243 7.49597 12.4937C7.49597 12.1631 7.60292 11.8909 7.81681 11.677C8.03069 11.4631 8.30292 11.3562 8.63347 11.3562C8.96403 11.3562 9.23625 11.4631 9.45014 11.677L14.0001 16.227L18.5501 11.677C18.764 11.4631 19.0363 11.3562 19.3668 11.3562C19.6974 11.3562 19.9696 11.4631 20.1835 11.677C20.3974 11.8909 20.5043 12.1631 20.5043 12.4937C20.5043 12.8243 20.3974 13.0965 20.1835 13.3104L14.8168 18.677C14.7001 18.7937 14.5738 18.8763 14.4376 18.925C14.3015 18.9736 14.1557 18.9979 14.0001 18.9979Z" fill="white"/>
</g>
</g>
</g>
</g>
<defs>
<clipPath id="clip0_370_561">
<rect y="0.527832" width="28" height="28" rx="14" fill="white"/>
</clipPath>
</defs>
</svg>
